<mxfile host="app.diagrams.net" modified="2023-04-27T01:57:43.089Z" agent="Mozilla/5.0 (Macintosh; Intel Mac OS X 10_15_7) AppleWebKit/537.36 (KHTML, like Gecko) Chrome/112.0.0.0 Safari/537.36" etag="xLr_wpZLKKfoTtyEq0cT" version="21.2.3" type="github">
  <diagram name="Page-1" id="_nmyXoGxCW-vNw_3cGDw">
    <mxGraphModel dx="2358" dy="1304" grid="1" gridSize="10" guides="1" tooltips="1" connect="1" arrows="1" fold="1" page="1" pageScale="1" pageWidth="850" pageHeight="1100" math="0" shadow="0">
      <root>
        <mxCell id="0" />
        <mxCell id="1" parent="0" />
        <mxCell id="3uHFTIt6rqonedXPRXS7-2" value="" style="edgeStyle=orthogonalEdgeStyle;rounded=0;orthogonalLoop=1;jettySize=auto;html=1;" edge="1" parent="1" source="3uHFTIt6rqonedXPRXS7-4" target="3uHFTIt6rqonedXPRXS7-6">
          <mxGeometry relative="1" as="geometry" />
        </mxCell>
        <mxCell id="3uHFTIt6rqonedXPRXS7-4" value="MCP&lt;br&gt;D2H" style="rounded=0;whiteSpace=wrap;html=1;" vertex="1" parent="1">
          <mxGeometry y="340" width="160" height="60" as="geometry" />
        </mxCell>
        <mxCell id="3uHFTIt6rqonedXPRXS7-5" value="" style="edgeStyle=orthogonalEdgeStyle;rounded=0;orthogonalLoop=1;jettySize=auto;html=1;" edge="1" parent="1" source="3uHFTIt6rqonedXPRXS7-6" target="3uHFTIt6rqonedXPRXS7-8">
          <mxGeometry relative="1" as="geometry" />
        </mxCell>
        <mxCell id="3uHFTIt6rqonedXPRXS7-6" value="Host Calculate" style="rounded=0;whiteSpace=wrap;html=1;" vertex="1" parent="1">
          <mxGeometry y="460" width="160" height="60" as="geometry" />
        </mxCell>
        <mxCell id="3uHFTIt6rqonedXPRXS7-8" value="MCP&lt;br&gt;H2D" style="rounded=0;whiteSpace=wrap;html=1;" vertex="1" parent="1">
          <mxGeometry y="580" width="160" height="60" as="geometry" />
        </mxCell>
        <mxCell id="3uHFTIt6rqonedXPRXS7-13" value="" style="edgeStyle=orthogonalEdgeStyle;rounded=0;orthogonalLoop=1;jettySize=auto;html=1;" edge="1" parent="1" source="3uHFTIt6rqonedXPRXS7-15" target="3uHFTIt6rqonedXPRXS7-17">
          <mxGeometry relative="1" as="geometry" />
        </mxCell>
        <mxCell id="3uHFTIt6rqonedXPRXS7-15" value="MCP&lt;br style=&quot;border-color: var(--border-color);&quot;&gt;D2H" style="rounded=0;whiteSpace=wrap;html=1;" vertex="1" parent="1">
          <mxGeometry x="240" y="340" width="160" height="60" as="geometry" />
        </mxCell>
        <mxCell id="3uHFTIt6rqonedXPRXS7-16" value="" style="edgeStyle=orthogonalEdgeStyle;rounded=0;orthogonalLoop=1;jettySize=auto;html=1;" edge="1" parent="1" source="3uHFTIt6rqonedXPRXS7-17" target="3uHFTIt6rqonedXPRXS7-19">
          <mxGeometry relative="1" as="geometry" />
        </mxCell>
        <mxCell id="3uHFTIt6rqonedXPRXS7-17" value="Host Calculate" style="rounded=0;whiteSpace=wrap;html=1;" vertex="1" parent="1">
          <mxGeometry x="240" y="460" width="160" height="60" as="geometry" />
        </mxCell>
        <mxCell id="3uHFTIt6rqonedXPRXS7-19" value="MCP&lt;br style=&quot;border-color: var(--border-color);&quot;&gt;H2D" style="rounded=0;whiteSpace=wrap;html=1;" vertex="1" parent="1">
          <mxGeometry x="240" y="580" width="160" height="60" as="geometry" />
        </mxCell>
        <mxCell id="3uHFTIt6rqonedXPRXS7-24" value="" style="edgeStyle=orthogonalEdgeStyle;rounded=0;orthogonalLoop=1;jettySize=auto;html=1;" edge="1" parent="1" source="3uHFTIt6rqonedXPRXS7-26" target="3uHFTIt6rqonedXPRXS7-28">
          <mxGeometry relative="1" as="geometry" />
        </mxCell>
        <mxCell id="3uHFTIt6rqonedXPRXS7-26" value="MCP&lt;br style=&quot;border-color: var(--border-color);&quot;&gt;D2H" style="rounded=0;whiteSpace=wrap;html=1;" vertex="1" parent="1">
          <mxGeometry x="480" y="340" width="160" height="60" as="geometry" />
        </mxCell>
        <mxCell id="3uHFTIt6rqonedXPRXS7-27" value="" style="edgeStyle=orthogonalEdgeStyle;rounded=0;orthogonalLoop=1;jettySize=auto;html=1;" edge="1" parent="1" source="3uHFTIt6rqonedXPRXS7-28" target="3uHFTIt6rqonedXPRXS7-30">
          <mxGeometry relative="1" as="geometry" />
        </mxCell>
        <mxCell id="3uHFTIt6rqonedXPRXS7-28" value="Host Calculate" style="rounded=0;whiteSpace=wrap;html=1;" vertex="1" parent="1">
          <mxGeometry x="480" y="460" width="160" height="60" as="geometry" />
        </mxCell>
        <mxCell id="3uHFTIt6rqonedXPRXS7-30" value="MCP&lt;br style=&quot;border-color: var(--border-color);&quot;&gt;H2D" style="rounded=0;whiteSpace=wrap;html=1;" vertex="1" parent="1">
          <mxGeometry x="480" y="580" width="160" height="60" as="geometry" />
        </mxCell>
        <mxCell id="3uHFTIt6rqonedXPRXS7-35" value="" style="edgeStyle=orthogonalEdgeStyle;rounded=0;orthogonalLoop=1;jettySize=auto;html=1;" edge="1" parent="1" source="3uHFTIt6rqonedXPRXS7-36" target="3uHFTIt6rqonedXPRXS7-38">
          <mxGeometry relative="1" as="geometry" />
        </mxCell>
        <mxCell id="3uHFTIt6rqonedXPRXS7-36" value="MCP&lt;br style=&quot;border-color: var(--border-color);&quot;&gt;D2H" style="rounded=0;whiteSpace=wrap;html=1;" vertex="1" parent="1">
          <mxGeometry x="720" y="340" width="160" height="60" as="geometry" />
        </mxCell>
        <mxCell id="3uHFTIt6rqonedXPRXS7-37" value="" style="edgeStyle=orthogonalEdgeStyle;rounded=0;orthogonalLoop=1;jettySize=auto;html=1;" edge="1" parent="1" source="3uHFTIt6rqonedXPRXS7-38" target="3uHFTIt6rqonedXPRXS7-40">
          <mxGeometry relative="1" as="geometry" />
        </mxCell>
        <mxCell id="3uHFTIt6rqonedXPRXS7-38" value="Host Calculate" style="rounded=0;whiteSpace=wrap;html=1;" vertex="1" parent="1">
          <mxGeometry x="720" y="460" width="160" height="60" as="geometry" />
        </mxCell>
        <mxCell id="3uHFTIt6rqonedXPRXS7-40" value="MCP&lt;br style=&quot;border-color: var(--border-color);&quot;&gt;H2D" style="rounded=0;whiteSpace=wrap;html=1;" vertex="1" parent="1">
          <mxGeometry x="720" y="580" width="160" height="60" as="geometry" />
        </mxCell>
      </root>
    </mxGraphModel>
  </diagram>
</mxfile>
